<svg width="130" height="99" viewBox="0 0 130 99" fill="none" xmlns="http://www.w3.org/2000/svg">
<path fill-rule="evenodd" clip-rule="evenodd" d="M35.2412 78.8835C54.6638 78.8835 101.028 83.7342 117.331 69.1185C124.054 63.0909 127.877 55.3457 129.062 45.9305C129.203 44.7855 129.234 42.05 129.53 41.2389V36.3087C129.171 35.3862 129.171 32.9847 129.015 31.8397C128.813 30.4083 128.579 29.0883 128.251 27.7046C125.256 15.0451 116.707 6.85459 104.85 2.8309C102.401 2.00389 99.8738 1.36774 97.2061 0.938332C95.8333 0.715677 94.4449 0.508926 93.0408 0.36579C92.136 0.270367 89.2499 0.174943 88.6883 0H83.2282C83.9926 0.97014 85.927 1.66991 87.7211 5.93216C89.4059 9.95586 89.0159 12.1983 89.6555 14.2658C94.6945 15.0769 98.033 15.6177 101.808 18.1305C104.819 20.1344 107.362 22.9653 108.938 27.1003C112.073 35.2908 111.387 47.0915 107.066 53.7712C102.729 60.4667 95.3029 62.8205 84.9754 63.7588C78.4856 64.3473 60.7635 64.1087 53.3377 64.0769V17.5738C52.2301 17.2399 37.4409 17.3989 35.2724 17.4943V78.8994L35.2412 78.8835Z" fill="white"/>
<path fill-rule="evenodd" clip-rule="evenodd" d="M68.4851 0.015625H22.9319C16.4109 0.015625 8.06464 0.635878 5.28776 7.69722C3.1661 13.0887 3.52491 22.5992 3.68092 28.9131C3.83692 35.3223 4.92895 41.7634 11.0443 44.2763C16.5045 46.5187 25.3031 46.2165 31.6057 46.0734L31.6681 30.7579H19.5154L19.4686 13.8202H70.17L70.2324 22.79C71.4336 22.6628 85.708 19.1958 86.1448 18.9254C86.488 14.0906 85.2712 7.68132 82.8219 4.69138C79.8266 1.03348 73.0717 0.015625 68.5007 0.015625L68.4851 0.015625Z" fill="white"/>
<path fill-rule="evenodd" clip-rule="evenodd" d="M56.8945 46.0577L71.2313 46.0895V60.4349C73.6962 60.5303 85.4901 60.4985 87.019 59.8464C87.5338 59.4488 87.0658 45.5011 87.019 45.1671C86.0517 34.75 81.59 31.5851 71.6369 30.8854C69.2345 30.7263 66.8164 30.7581 64.3983 30.7581C61.9803 30.7581 59.2346 30.6309 56.8945 30.79V46.0577Z" fill="white"/>
<path fill-rule="evenodd" clip-rule="evenodd" d="M1.90309 57.8268L0.514648 58.129C0.514648 65.7629 1.31027 74.6691 8.43967 77.3887C14.4146 79.6629 25.2569 78.8996 31.6531 78.8996L31.5751 64.1089L16.4583 64.0612V54.8369C14.8202 54.9482 12.2618 55.6639 10.5301 56.0297C6.66122 56.8408 4.89837 57.4293 1.88749 57.8428L1.90309 57.8268Z" fill="white"/>
<path d="M6.95763 88.5365H3.02632V91.3197H6.64562V93.4031H3.02632V97.8244H0.514648V86.4531H6.95763V88.5365Z" fill="white"/>
<path d="M9.79662 88.426C9.3754 88.426 9.0478 88.2988 8.78259 88.0443C8.51738 87.7899 8.39258 87.4877 8.39258 87.1219C8.39258 86.7561 8.51738 86.4381 8.78259 86.1995C9.0478 85.9609 9.39101 85.8496 9.79662 85.8496C10.2022 85.8496 10.561 85.9609 10.8262 86.1995C11.0915 86.4381 11.2163 86.7402 11.2163 87.1219C11.2163 87.5036 11.0915 87.8217 10.8262 88.0603C10.561 88.2988 10.2178 88.426 9.79662 88.426ZM11.0135 97.8253H8.54858V89.6984H11.0135V97.8253Z" fill="white"/>
<path d="M20.7799 97.8249H18.3306V93.3082C18.3306 92.0517 17.8938 91.4156 17.0046 91.4156C16.5834 91.4156 16.2246 91.5905 15.9593 91.9086C15.6785 92.2426 15.5537 92.672 15.5537 93.1809V97.809H13.0889V89.6821H15.5537V90.9703H15.5849C16.1778 89.9842 17.0202 89.4912 18.1434 89.4912C19.9063 89.4912 20.7955 90.6045 20.7955 92.831V97.809L20.7799 97.8249Z" fill="white"/>
<path d="M29.3441 97.8256H27.0196V96.6646H26.9884C26.458 97.5711 25.6624 98.0323 24.6172 98.0323C23.8371 98.0323 23.2287 97.8097 22.7919 97.3644C22.3551 96.919 22.1211 96.3147 22.1211 95.5831C22.1211 94.0086 23.0415 93.1021 24.8668 92.8476L27.0352 92.5614C27.0352 91.6707 26.5672 91.2254 25.6156 91.2254C24.664 91.2254 23.7591 91.5117 22.9167 92.0842V90.1917C23.2599 90.0167 23.7279 89.8577 24.3208 89.7146C24.9136 89.5714 25.4596 89.5078 25.9432 89.5078C28.2209 89.5078 29.3441 90.6688 29.3441 92.9749V97.8256ZM27.0352 94.5335V93.9927L25.5844 94.1836C24.7888 94.2949 24.3832 94.6607 24.3832 95.2809C24.3832 95.5672 24.4768 95.8058 24.6796 95.9807C24.8668 96.1557 25.132 96.2511 25.4752 96.2511C25.9432 96.2511 26.3176 96.092 26.5984 95.7581C26.8792 95.4241 27.0352 95.0265 27.0352 94.5175V94.5335Z" fill="white"/>
<path d="M38.985 97.8249H36.5357V93.3082C36.5357 92.0517 36.0989 91.4156 35.2097 91.4156C34.7884 91.4156 34.4296 91.5905 34.1644 91.9086C33.8836 92.2426 33.7588 92.672 33.7588 93.1809V97.809H31.2939V89.6821H33.7588V90.9703H33.79C34.3828 89.9842 35.2253 89.4912 36.3485 89.4912C38.1113 89.4912 39.0006 90.6045 39.0006 92.831V97.809L38.985 97.8249Z" fill="white"/>
<path d="M46.9722 97.5234C46.4106 97.8574 45.6149 98.0164 44.5697 98.0164C43.3529 98.0164 42.3544 97.6347 41.6056 96.8872C40.8412 96.1397 40.4668 95.1537 40.4668 93.9609C40.4668 92.5773 40.8724 91.4958 41.6836 90.7006C42.4949 89.9054 43.5869 89.5078 44.9441 89.5078C45.8801 89.5078 46.5666 89.635 46.9878 89.8895V92.0206C46.473 91.623 45.8957 91.4322 45.2717 91.4322C44.5697 91.4322 44.0081 91.6389 43.6025 92.0683C43.1969 92.4818 42.9785 93.0703 42.9785 93.8019C42.9785 94.5335 43.1813 95.0901 43.5713 95.4877C43.9613 95.9012 44.5073 96.1079 45.1937 96.1079C45.8021 96.1079 46.4106 95.9171 46.9878 95.5195V97.5393L46.9722 97.5234Z" fill="white"/>
<path d="M49.8279 88.426C49.4067 88.426 49.079 88.2988 48.8138 88.0443C48.5486 87.7899 48.4238 87.4877 48.4238 87.1219C48.4238 86.7561 48.5486 86.4381 48.8138 86.1995C49.079 85.9609 49.4223 85.8496 49.8279 85.8496C50.2335 85.8496 50.5923 85.9609 50.8575 86.1995C51.1227 86.4381 51.2475 86.7402 51.2475 87.1219C51.2475 87.5036 51.1227 87.8217 50.8575 88.0603C50.5923 88.2988 50.2491 88.426 49.8279 88.426ZM51.0447 97.8253H48.5798V89.6984H51.0447V97.8253Z" fill="white"/>
<path d="M59.7337 97.8256H57.4093V96.6646H57.3781C56.8477 97.5711 56.052 98.0323 55.0068 98.0323C54.2268 98.0323 53.6184 97.8097 53.1816 97.3644C52.7447 96.919 52.5107 96.3147 52.5107 95.5831C52.5107 94.0086 53.4312 93.1021 55.2564 92.8476L57.4249 92.5614C57.4249 91.6707 56.9569 91.2254 56.0052 91.2254C55.0536 91.2254 54.1488 91.5117 53.3064 92.0842V90.1917C53.6496 90.0167 54.1176 89.8577 54.7104 89.7146C55.3032 89.5714 55.8492 89.5078 56.3328 89.5078C58.6105 89.5078 59.7337 90.6688 59.7337 92.9749V97.8256ZM57.4249 94.5335V93.9927L55.974 94.1836C55.1784 94.2949 54.7728 94.6607 54.7728 95.2809C54.7728 95.5672 54.8664 95.8058 55.0692 95.9807C55.2564 96.1557 55.5216 96.2511 55.8648 96.2511C56.3328 96.2511 56.7073 96.092 56.9881 95.7581C57.2689 95.4241 57.4249 95.0265 57.4249 94.5175V94.5335Z" fill="white"/>
<path d="M64.1328 97.8251H61.668V85.8018H64.1328V97.8251Z" fill="white"/>
<path d="M70.3261 97.3959V94.8512C70.7785 95.2329 71.2621 95.5192 71.7925 95.726C72.323 95.9168 72.8534 96.0122 73.3994 96.0122C73.7114 96.0122 73.9922 95.9804 74.2262 95.9327C74.4602 95.8691 74.663 95.7896 74.819 95.6941C74.975 95.5828 75.0998 95.4715 75.1778 95.3284C75.2558 95.1852 75.287 95.0421 75.287 94.8671C75.287 94.6445 75.2246 94.4536 75.0998 94.2787C74.975 94.1038 74.8034 93.9447 74.585 93.8016C74.3666 93.6584 74.117 93.5153 73.8206 93.3722C73.5242 93.229 73.2122 93.1018 72.869 92.9587C71.9953 92.5929 71.3557 92.1317 70.9189 91.6068C70.4977 91.082 70.2793 90.4299 70.2793 89.6666C70.2793 89.0781 70.3885 88.5692 70.6225 88.1398C70.8565 87.7104 71.1685 87.3605 71.5741 87.0901C71.9797 86.8198 72.4478 86.613 72.9782 86.4858C73.5086 86.3585 74.0702 86.2949 74.663 86.2949C75.2558 86.2949 75.755 86.3267 76.2075 86.4062C76.6599 86.4858 77.0655 86.5812 77.4555 86.7402V89.1099C77.2683 88.9827 77.0655 88.8555 76.8471 88.76C76.6287 88.6646 76.3947 88.5692 76.1607 88.5056C75.9267 88.442 75.6926 88.3942 75.4586 88.3624C75.2246 88.3306 75.0062 88.3147 74.8034 88.3147C74.5226 88.3147 74.2574 88.3465 74.0234 88.3942C73.7894 88.4579 73.5866 88.5215 73.4306 88.6328C73.2746 88.7282 73.1498 88.8555 73.0562 88.9986C72.9626 89.1417 72.9314 89.3008 72.9314 89.4757C72.9314 89.6666 72.9782 89.8415 73.0718 89.9846C73.1654 90.1278 73.3058 90.2709 73.493 90.414C73.6802 90.5572 73.8986 90.6844 74.1482 90.8116C74.4134 90.9389 74.6942 91.082 75.0218 91.2092C75.4742 91.4001 75.8642 91.6068 76.2231 91.8136C76.5819 92.0203 76.8783 92.2748 77.1435 92.5452C77.3931 92.8155 77.5959 93.1177 77.7207 93.4676C77.8455 93.8175 77.9235 94.2151 77.9235 94.6763C77.9235 95.3125 77.7987 95.8373 77.5647 96.2667C77.3307 96.6961 77.0031 97.046 76.5975 97.3163C76.1919 97.5867 75.7238 97.7776 75.1934 97.8889C74.663 98.0002 74.0858 98.0638 73.493 98.0638C72.9002 98.0638 72.2918 98.0161 71.7457 97.9048C71.1997 97.7935 70.7161 97.6344 70.3105 97.4277L70.3261 97.3959Z" fill="white"/>
<path d="M86.6911 94.4698H81.4962C81.5742 95.6467 82.3074 96.2352 83.6802 96.2352C84.5539 96.2352 85.3339 96.0284 85.9891 95.599V97.4121C85.2559 97.8097 84.2886 98.0164 83.1186 98.0164C81.8394 98.0164 80.841 97.6506 80.1233 96.919C79.4057 96.1875 79.0625 95.1855 79.0625 93.8814C79.0625 92.5773 79.4525 91.464 80.2169 90.6847C80.9814 89.8895 81.933 89.5078 83.0406 89.5078C84.1482 89.5078 85.0999 89.8577 85.7395 90.5575C86.3791 91.2572 86.6911 92.2115 86.6911 93.4202V94.4698ZM84.4134 92.9431C84.4134 91.7821 83.9454 91.1936 83.025 91.1936C82.635 91.1936 82.2918 91.3686 81.9954 91.6866C81.7146 92.0206 81.5274 92.4341 81.465 92.9272H84.3979L84.4134 92.9431Z" fill="white"/>
<path d="M93.3522 91.9565C93.0558 91.7974 92.7126 91.702 92.3225 91.702C91.7921 91.702 91.3709 91.9087 91.0745 92.3063C90.7781 92.7039 90.6221 93.2447 90.6221 93.9285V97.8091H88.1572V89.6822H90.6221V91.1931H90.6533C91.0433 90.0957 91.7453 89.5391 92.7594 89.5391C93.0246 89.5391 93.2274 89.5709 93.3678 89.6345V91.9406L93.3522 91.9565Z" fill="white"/>
<path d="M102.073 89.6982L99.1093 97.8252H96.3168L93.4932 89.6982H96.1296L97.5181 94.708C97.6741 95.2805 97.7677 95.7576 97.7833 96.1552H97.8145C97.8457 95.7735 97.9393 95.3123 98.0953 94.7557L99.5149 89.6982H102.089H102.073Z" fill="white"/>
<path d="M104.367 88.426C103.946 88.426 103.618 88.2988 103.353 88.0443C103.088 87.7899 102.963 87.4877 102.963 87.1219C102.963 86.7561 103.088 86.4381 103.353 86.1995C103.618 85.9609 103.961 85.8496 104.367 85.8496C104.773 85.8496 105.131 85.9609 105.397 86.1995C105.662 86.4381 105.787 86.7402 105.787 87.1219C105.787 87.5036 105.662 87.8217 105.397 88.0603C105.131 88.2988 104.788 88.426 104.367 88.426ZM105.584 97.8253H103.119V89.6984H105.584V97.8253Z" fill="white"/>
<path d="M113.696 97.5234C113.134 97.8574 112.339 98.0164 111.293 98.0164C110.077 98.0164 109.078 97.6347 108.329 96.8872C107.565 96.1397 107.19 95.1537 107.19 93.9609C107.19 92.5773 107.596 91.4958 108.407 90.7006C109.218 89.9054 110.311 89.5078 111.668 89.5078C112.604 89.5078 113.29 89.635 113.711 89.8895V92.0206C113.197 91.623 112.619 91.4322 111.995 91.4322C111.293 91.4322 110.732 91.6389 110.326 92.0683C109.921 92.4818 109.702 93.0703 109.702 93.8019C109.702 94.5335 109.905 95.0901 110.295 95.4877C110.685 95.9012 111.231 96.1079 111.917 96.1079C112.526 96.1079 113.134 95.9171 113.711 95.5195V97.5393L113.696 97.5234Z" fill="white"/>
<path d="M122.464 94.4698H117.269C117.347 95.6467 118.08 96.2352 119.453 96.2352C120.326 96.2352 121.106 96.0284 121.762 95.599V97.4121C121.028 97.8097 120.061 98.0164 118.891 98.0164C117.612 98.0164 116.613 97.6506 115.896 96.919C115.178 96.1875 114.835 95.1855 114.835 93.8814C114.835 92.5773 115.225 91.464 115.989 90.6847C116.754 89.8895 117.705 89.5078 118.813 89.5078C119.921 89.5078 120.872 89.8577 121.512 90.5575C122.152 91.2572 122.464 92.2115 122.464 93.4202V94.4698ZM120.17 92.9431C120.17 91.7821 119.702 91.1936 118.782 91.1936C118.392 91.1936 118.049 91.3686 117.752 91.6866C117.471 92.0206 117.284 92.4341 117.222 92.9272H120.155L120.17 92.9431Z" fill="white"/>
<path d="M123.399 97.6029V95.5672C123.805 95.8217 124.211 95.9966 124.616 96.1238C125.022 96.2511 125.396 96.3147 125.755 96.3147C126.192 96.3147 126.535 96.2511 126.785 96.1238C127.034 95.9966 127.159 95.8217 127.159 95.5672C127.159 95.4082 127.097 95.2809 126.988 95.1696C126.878 95.0583 126.722 94.9788 126.551 94.8992C126.379 94.8197 126.176 94.7561 125.958 94.6925C125.739 94.6289 125.537 94.5653 125.349 94.4857C125.037 94.3585 124.757 94.2313 124.507 94.0881C124.273 93.945 124.07 93.786 123.899 93.5951C123.743 93.4043 123.618 93.1975 123.524 92.959C123.446 92.7204 123.399 92.4341 123.399 92.1002C123.399 91.6389 123.493 91.2572 123.696 90.9233C123.899 90.5893 124.148 90.3189 124.476 90.1122C124.803 89.9054 125.178 89.7464 125.583 89.6509C125.989 89.5555 126.442 89.5078 126.894 89.5078C127.253 89.5078 127.612 89.5396 127.97 89.5873C128.329 89.6509 128.688 89.7305 129.047 89.8259V91.7662C128.735 91.5753 128.407 91.4481 128.048 91.3527C127.69 91.2572 127.346 91.2095 127.003 91.2095C126.847 91.2095 126.691 91.2095 126.551 91.2572C126.41 91.289 126.286 91.3209 126.176 91.3845C126.067 91.4481 125.989 91.5117 125.927 91.5912C125.864 91.6707 125.833 91.7821 125.833 91.8934C125.833 92.0365 125.88 92.1638 125.973 92.2751C126.067 92.3864 126.192 92.4659 126.332 92.5455C126.488 92.625 126.644 92.6886 126.832 92.7522C127.019 92.8158 127.206 92.8794 127.378 92.9431C127.705 93.0544 128.002 93.1816 128.267 93.3248C128.532 93.4679 128.75 93.6269 128.953 93.8019C129.14 93.9927 129.281 94.1995 129.39 94.4539C129.484 94.7084 129.546 94.9947 129.546 95.3446C129.546 95.8217 129.437 96.2352 129.234 96.5851C129.031 96.919 128.75 97.2053 128.423 97.4121C128.095 97.6188 127.69 97.7779 127.253 97.8733C126.816 97.9687 126.348 98.0164 125.864 98.0164C124.991 98.0164 124.179 97.8733 123.431 97.6029H123.399Z" fill="white"/>
</svg>
