<svg width="81" height="80" viewBox="0 0 81 80" fill="none" xmlns="http://www.w3.org/2000/svg">
<rect x="0.578125" width="80" height="80" rx="40" fill="#003474"/>
<path d="M52.3368 38.469C52.3991 38.469 52.4611 38.4697 52.5233 38.4708L52.5393 38.471C52.8886 38.4767 53.2351 38.4972 53.5781 38.531V26.999C53.5781 24.7941 51.5965 23 49.161 23H29.9955C27.5598 23 25.5781 24.7941 25.5781 26.999V50.0007C25.5781 52.2059 27.5598 54 29.9953 54H42.7911C41.6869 52.3934 41.1076 50.5585 41.1076 48.6409C41.1076 43.0319 46.1448 38.469 52.3368 38.469ZM41.4198 29.5295H47.9657C48.5715 29.5295 49.0625 29.974 49.0625 30.5224C49.0625 31.0709 48.5715 31.5154 47.9657 31.5154H41.4198C40.8143 31.5154 40.323 31.0709 40.323 30.5224C40.323 29.974 40.8143 29.5295 41.4198 29.5295ZM41.4198 33.5016H47.9657C48.5715 33.5016 49.0625 33.9461 49.0625 34.4945C49.0625 35.043 48.5715 35.4875 47.9657 35.4875H41.4198C40.8143 35.4875 40.323 35.043 40.323 34.4945C40.323 33.9461 40.8143 33.5016 41.4198 33.5016ZM37.7364 47.4703H31.1906C30.5848 47.4703 30.0938 47.0257 30.0938 46.4773C30.0938 45.9291 30.5848 45.4843 31.1906 45.4843H37.7364C38.342 45.4843 38.8332 45.9291 38.8332 46.4773C38.8332 47.0257 38.342 47.4703 37.7364 47.4703ZM37.7364 43.4317H31.1906C30.5848 43.4317 30.0938 42.9872 30.0938 42.4387C30.0938 41.8903 30.5848 41.4458 31.1906 41.4458H37.7364C38.342 41.4458 38.8332 41.8903 38.8332 42.4387C38.8332 42.9872 38.342 43.4317 37.7364 43.4317ZM37.7364 39.4596H31.1906C30.5848 39.4596 30.0938 39.0151 30.0938 38.4666C30.0938 37.9182 30.5848 37.4737 31.1906 37.4737H37.7364C38.342 37.4737 38.8332 37.9182 38.8332 38.4666C38.8332 39.0151 38.342 39.4596 37.7364 39.4596ZM37.7364 35.4875H31.1906C30.5848 35.4875 30.0938 35.043 30.0938 34.4945C30.0938 33.9461 30.5848 33.5016 31.1906 33.5016H37.7364C38.342 33.5016 38.8332 33.9461 38.8332 34.4945C38.8332 35.043 38.342 35.4875 37.7364 35.4875ZM37.7364 31.5154H31.1906C30.5848 31.5154 30.0938 31.0709 30.0938 30.5224C30.0938 29.974 30.5848 29.5295 31.1906 29.5295H37.7364C38.342 29.5295 38.8332 29.974 38.8332 30.5224C38.8332 31.0709 38.342 31.5154 37.7364 31.5154ZM40.323 38.4666C40.323 37.9182 40.8143 37.4737 41.4198 37.4737H44.5725C45.1783 37.4737 45.6693 37.9182 45.6693 38.4666C45.6693 39.0151 45.1783 39.4596 44.5725 39.4596H41.4198C40.8143 39.4596 40.323 39.0151 40.323 38.4666Z" fill="#F4C520"/>
<path d="M58.1388 42.6902C56.5679 40.9986 54.4697 40.0437 52.2311 40.002L52.2165 40.0017C52.1703 40.0008 52.1242 40 52.0781 40C47.3911 40 43.5781 44.0374 43.5781 49C43.5781 50.971 44.1693 52.8428 45.2874 54.4133C46.9103 56.6929 49.3853 58 52.0781 58C56.7651 58 60.5781 53.9626 60.5781 49C60.5781 46.6243 59.7119 44.3834 58.1388 42.6902ZM55.7099 47.5369L52.4641 51.8182C52.2623 52.0841 51.9654 52.2237 51.665 52.2237C51.4563 52.2237 51.2463 52.1563 51.065 52.0176L48.6441 50.1616C48.1865 49.8108 48.0841 49.1337 48.416 48.6492C48.7475 48.1649 49.3875 48.0567 49.8451 48.4078L51.4771 49.6588L54.1134 46.1815C54.4671 45.7151 55.111 45.6403 55.5521 46.0146C55.993 46.3888 56.0636 47.0704 55.7099 47.5369Z" fill="#F4C520"/>
</svg>
