<svg width="81" height="80" viewBox="0 0 81 80" fill="none" xmlns="http://www.w3.org/2000/svg">
<rect x="0.583984" width="80" height="80" rx="40" fill="#003474"/>
<path d="M46.6877 22.4516L43.9218 22.0585L42.6896 19.622C42.2713 18.7927 40.9106 18.7927 40.4923 19.622L39.2602 22.0586L36.4944 22.4517C35.4797 22.5951 35.0744 23.8522 35.8189 24.5625L37.8034 26.4496L37.3358 29.1084C37.1608 30.109 38.2113 30.8784 39.1112 30.4163L41.5909 29.1422L44.0708 30.4163C44.9833 30.887 46.0193 30.0985 45.8462 29.1084L45.3786 26.4496L47.3632 24.5624C48.1076 23.8521 47.7023 22.5951 46.6877 22.4516Z" fill="#F4C520"/>
<path d="M61.5411 29.9574L58.7753 29.5644L57.5431 27.1279C57.1248 26.2985 55.7641 26.2985 55.3459 27.1279L54.1137 29.5644L51.3479 29.9574C50.3332 30.1009 49.9279 31.3579 50.6724 32.0682L52.657 33.9554L52.1894 36.6143C52.0144 37.6148 53.0649 38.3842 53.9648 37.9221L56.4445 36.6479L58.9243 37.9221C59.8413 38.3911 60.872 37.5993 60.6997 36.6142L60.2321 33.9553L62.2167 32.0682C62.9611 31.3579 62.5557 30.1009 61.5411 29.9574Z" fill="#F4C520"/>
<path d="M31.8352 29.9584L29.0693 29.5654L27.8371 27.1289C27.4188 26.2995 26.0581 26.2995 25.6398 27.1289L24.4077 29.5654L21.6418 29.9584C20.6272 30.1018 20.2219 31.3589 20.9663 32.0692L22.9509 33.9564L22.4833 36.6153C22.3083 37.6158 23.3588 38.3852 24.2588 37.9231L26.7384 36.6489L29.2182 37.923C30.1326 38.3922 31.1663 37.6022 30.9936 36.6153L30.5261 33.9564L32.5107 32.0692C33.255 31.3589 32.8497 30.1019 31.8352 29.9584Z" fill="#F4C520"/>
<path d="M46.0291 45.9415C47.8083 44.5918 48.9769 42.4762 48.9769 40.0757C48.9769 36.0032 45.6641 32.6904 41.5916 32.6904C37.5191 32.6904 34.2063 36.0032 34.2063 40.0757C34.2063 42.4762 35.375 44.5917 37.1541 45.9415C33.2518 47.6571 30.5137 51.5481 30.5137 56.0772V59.7698C30.5137 60.4502 31.0642 61.0007 31.7446 61.0007H51.4387C52.119 61.0007 52.6695 60.4502 52.6695 59.7698V56.0772C52.6695 51.5481 49.9315 47.6571 46.0291 45.9415Z" fill="#F4C520"/>
</svg>
