<svg width="81" height="80" viewBox="0 0 81 80" fill="none" xmlns="http://www.w3.org/2000/svg">
<rect x="0.578125" width="80" height="80" rx="40" fill="#003474"/>
<path d="M55.9523 32.5887C55.5435 32.2373 55.1329 31.9016 54.721 31.5801L49.919 36.3821C50.2116 37.2005 50.3715 38.0816 50.3715 38.9993C50.3715 43.2964 46.8756 46.7923 42.5785 46.7923C41.6608 46.7923 40.7798 46.6323 39.9613 46.3397L36.3574 49.9436C38.462 50.8069 40.5494 51.2454 42.5785 51.2454C45.0023 51.2454 47.509 50.6223 50.0289 49.3933C52.0077 48.4281 54.0007 47.0878 55.9523 45.4099C59.2517 42.5728 61.2842 39.7675 61.3691 39.6494C61.6485 39.2611 61.6485 38.7376 61.3691 38.3492C61.2841 38.2311 59.2517 35.4258 55.9523 32.5887Z" fill="#F4C520"/>
<path d="M42.5776 44.5659C45.6469 44.5659 48.144 42.0688 48.144 38.9995C48.144 38.7324 48.124 38.47 48.0874 38.2129L41.791 44.5093C42.0482 44.5458 42.3105 44.5659 42.5776 44.5659Z" fill="#F4C520"/>
<path d="M61.2522 20.326C60.8175 19.8913 60.1126 19.8913 59.6778 20.326L50.9313 29.0726C50.6302 28.9087 50.3293 28.7526 50.0286 28.606C47.5087 27.377 45.002 26.7538 42.5782 26.7538C40.1545 26.7538 37.6477 27.377 35.1278 28.606C33.149 29.5712 31.1561 30.9114 29.2045 32.5894C25.9052 35.4265 23.8726 38.2318 23.7877 38.3499C23.5083 38.7382 23.5083 39.2616 23.7877 39.65C23.8726 39.7681 25.9051 42.5735 29.2045 45.4105C30.2156 46.2799 31.2378 47.0576 32.2634 47.7403L23.9043 56.0995C23.4695 56.5342 23.4695 57.2392 23.9043 57.674C24.1217 57.8913 24.4065 58 24.6915 58C24.9764 58 25.2613 57.8913 25.4786 57.6739L61.2522 21.9004C61.687 21.4657 61.687 20.7607 61.2522 20.326ZM34.7852 39C34.7852 34.7029 38.2812 31.207 42.5782 31.207C44.3262 31.207 45.9415 31.7854 47.2429 32.761L45.6457 34.3582C44.7655 33.7745 43.7112 33.4335 42.5782 33.4335C39.5089 33.4335 37.0118 35.9306 37.0118 39C37.0118 40.1328 37.3528 41.1872 37.9364 42.0674L36.3392 43.6646C35.3637 42.3632 34.7852 40.7479 34.7852 39Z" fill="#F4C520"/>
</svg>
