<svg width="81" height="80" viewBox="0 0 81 80" fill="none" xmlns="http://www.w3.org/2000/svg">
<rect x="0.583984" width="80" height="80" rx="40" fill="#003474"/>
<path d="M36.5657 22.1994C37.3748 22.1994 38.0307 21.5434 38.0307 20.7343V14.4573C37.9533 12.5135 35.1773 12.515 35.1006 14.4573V20.7344C35.1006 21.5435 35.7565 22.1994 36.5657 22.1994Z" fill="#F4C520"/>
<path d="M29.2522 21.7694C29.8242 22.3415 30.752 22.3417 31.3241 21.7694C31.8963 21.1973 31.8963 20.2697 31.3241 19.6975L29.7549 18.1283C29.1829 17.5562 28.2552 17.5562 27.683 18.1283C27.1109 18.7005 27.1109 19.6281 27.683 20.2002L29.2522 21.7694Z" fill="#F4C520"/>
<path d="M43.879 21.7694L45.4481 20.2002C46.0203 19.6281 46.0203 18.7005 45.4481 18.1283C44.8761 17.5562 43.9484 17.5562 43.3762 18.1283L41.807 19.6975C41.2349 20.2697 41.2349 21.1973 41.807 21.7694C42.379 22.3415 43.3068 22.3417 43.879 21.7694Z" fill="#F4C520"/>
<path d="M54.252 35.3705C55.0887 34.5339 55.0899 33.1784 54.252 32.3408C53.4153 31.5041 52.0601 31.5031 51.2223 32.3408L46.1206 37.4425C45.2853 38.2778 45.2853 39.637 46.1206 40.4723C46.9562 41.3071 48.3155 41.3072 49.1505 40.4723L54.2517 35.371C54.2518 35.3707 54.2519 35.3706 54.252 35.3705Z" fill="#F4C520"/>
<path d="M54.2517 45.5739L58.0781 41.7476C58.9147 40.9109 58.916 39.5555 58.0781 38.7178C57.2416 37.8812 55.8862 37.8799 55.0485 38.7178L51.2219 42.5443C50.3868 43.3794 50.387 44.7386 51.2222 45.5743C52.0587 46.4106 53.414 46.4116 54.2517 45.5739Z" fill="#F4C520"/>
<path d="M61.9046 45.0957C61.0754 44.2666 59.7195 44.2506 58.875 45.095L56.3243 47.6458C55.4864 48.4838 55.4877 49.8391 56.3238 50.6753C57.1706 51.5232 58.5289 51.501 59.3529 50.6759L61.9039 48.1249L61.9047 48.1241C62.73 47.2998 62.7513 45.9413 61.9046 45.0957Z" fill="#F4C520"/>
<path d="M52.7667 49.1594C52.7667 49.1496 52.7674 49.1398 52.7674 49.1299C51.4027 49.1401 50.1148 48.6095 49.1502 47.645C48.1534 46.6476 47.6597 45.3352 47.668 44.0255C46.3568 44.0355 45.0464 43.5396 44.0488 42.5436C42.0708 40.5656 42.0708 37.3475 44.0485 35.3698L58.0783 21.3409C58.8782 20.54 58.9451 19.1767 58.084 18.3156C57.3672 17.5989 56.0071 17.3526 55.0487 18.3111L36.954 36.4057L37.1933 36.645C41.2807 40.7324 41.2807 47.3832 37.1933 51.4706C36.6211 52.0429 35.6933 52.0427 35.1214 51.4706C34.5492 50.8986 34.5492 49.9709 35.1214 49.3987C38.0663 46.4537 38.0663 41.6619 35.1214 38.7169C35.1214 38.7169 33.8456 37.4404 33.8455 37.44C33.6552 37.2494 33.5173 37.0072 33.4546 36.7354L31.7781 29.4708C31.2619 27.2337 28.8937 25.9369 26.7216 26.734C26.1441 26.9459 25.7607 27.4964 25.7612 28.1115L25.7813 48.84L22.0131 52.6065C21.4409 53.1787 21.4409 54.1063 22.0131 54.6784L29.9049 62.5703C30.1797 62.845 30.5523 62.9994 30.9409 62.9994H45.3947C46.4479 62.9994 47.4387 62.5886 48.1844 61.843L56.1007 53.9271C55.4134 53.677 54.7833 53.2778 54.2513 52.745C53.2941 51.788 52.7667 50.5143 52.7667 49.1594Z" fill="#F4C520"/>
</svg>
