<svg width="81" height="80" viewBox="0 0 81 80" fill="none" xmlns="http://www.w3.org/2000/svg">
<rect x="0.578125" width="80" height="80" rx="40" fill="#003474"/>
<path d="M21.5781 24H26.1115V35.3333H21.5781V24Z" fill="#F4C520"/>
<path d="M55.7305 46.667H60.2638V58.0003H55.7305V46.667Z" fill="#F4C520"/>
<path d="M38.6562 35.333H43.1896V46.6663H38.6562V35.333Z" fill="#F4C520"/>
<path d="M24.9781 44.3996H36.387V37.5996H24.9781C23.1033 37.5996 21.5781 39.1248 21.5781 40.9996C21.5781 42.8744 23.1033 44.3996 24.9781 44.3996Z" fill="#F4C520"/>
<path d="M56.862 37.5996H45.4531V44.3996H56.862C58.7368 44.3996 60.262 42.8744 60.262 40.9996C60.262 39.1248 58.7368 37.5996 56.862 37.5996Z" fill="#F4C520"/>
<path d="M56.8633 26.2666H28.3789V33.0666H56.8633C58.7382 33.0666 60.2634 31.5414 60.2634 29.6666C60.2634 27.7918 58.7382 26.2666 56.8633 26.2666Z" fill="#F4C520"/>
<path d="M24.9781 55.7336H53.4626V48.9336H24.9781C23.1033 48.9336 21.5781 50.4588 21.5781 52.3336C21.5781 54.2084 23.1033 55.7336 24.9781 55.7336Z" fill="#F4C520"/>
</svg>
