<svg width="81" height="80" viewBox="0 0 81 80" fill="none" xmlns="http://www.w3.org/2000/svg">
<path d="M0.578125 40C0.578125 17.9086 18.4867 0 40.5781 0C62.6695 0 80.5781 17.9086 80.5781 40C80.5781 62.0914 62.6695 80 40.5781 80C18.4867 80 0.578125 62.0914 0.578125 40Z" fill="#003474"/>
<path d="M55.358 20.5842L53.0362 16L50.7144 20.5842L45.5781 21.3465L49.279 24.9431L48.4271 30L53.0362 27.6381L57.7292 30L56.8772 24.9431L60.5781 21.3465L55.358 20.5842Z" fill="#F4C520"/>
<path d="M60.5781 54.5H58.0586V32H47.8965V54.5H45.377V39.5H35.2988V54.5H32.7793V44.5H22.6172V54.5H17.5781V57H60.5781V54.5Z" fill="#F4C520"/>
</svg>
